<svg width="174" height="174" viewBox="0 0 174 174" fill="none" xmlns="http://www.w3.org/2000/svg">
<rect width="174" height="174" fill="white"/>
<circle cx="87.5" cy="86.5" r="84.5" stroke="black" stroke-width="4"/>
<path fill-rule="evenodd" clip-rule="evenodd" d="M63.928 73.0793C63.9251 61.9354 63.8221 55.9168 63.6275 55.5534C63.3703 55.073 63.0109 55 60.9001 55C59.1726 55 58.4278 55.1073 58.3268 55.3711C58.2484 55.5751 58.2204 63.9218 58.2642 73.9194L58.344 92.0972L59.1498 93.3144C60.2505 94.9775 61.7362 95.6184 64.496 95.621C65.6763 95.6221 66.9639 95.4602 67.3573 95.2613C68.0094 94.9314 68.0727 94.7354 68.0727 93.0477V91.1964L66.2737 91.0531C65.1123 90.9607 64.3786 90.7581 64.2035 90.4808C64.0407 90.2233 63.9308 83.2713 63.928 73.0793ZM49.8892 69.8099C49.4182 69.2385 48.2963 68.4104 47.3958 67.9701C45.8747 67.2258 45.4847 67.1649 41.8934 67.1114C37.704 67.049 35.8593 67.2753 33.0895 68.191C31.0782 68.8559 30.7317 69.2854 30.7317 71.113C30.7317 72.9491 31.0733 73.1025 33.6025 72.4029C35.0083 72.014 36.9692 71.764 39.3356 71.6718C42.6204 71.5436 43.0376 71.5854 44.1501 72.1528C45.7196 72.9537 46.1485 73.9832 46.38 77.5065C46.5511 80.1117 46.5331 80.2396 46.014 80.0866C43.1981 79.2576 38.0786 79.0868 35.6244 79.7398C32.595 80.5461 29.9917 82.826 29.3142 85.2662C28.7748 87.2085 28.9482 90.1826 29.6942 91.7847C31.1497 94.9108 33.963 96.3438 38.2726 96.1546C40.4718 96.0579 41.2006 95.894 42.8393 95.1268C43.9115 94.6246 45.1548 93.9534 45.6017 93.6352C46.6633 92.8792 46.7554 92.8998 46.7554 93.8944C46.7554 95.1591 47.4161 95.6316 49.1847 95.6316C49.9946 95.6316 50.5372 95.7293 50.9 95.5182C51.7302 95.0352 51.6198 92.9354 51.6198 84.3494C51.6198 72.3388 51.5599 71.8369 49.8892 69.8099ZM93.5023 71.0984C92.5269 69.5135 90.5208 68.0642 88.4511 67.4496C86.6982 66.9291 82.0771 66.905 80.2335 67.4069C78.0829 67.9924 76.2742 69.0591 74.8138 70.6034C72.1164 73.4553 71.0857 76.5782 71.0857 81.897C71.0857 85.5655 71.551 88.024 72.6589 90.2107C74.1222 93.0984 76.3378 94.9053 79.697 95.9509C82.1195 96.7049 86.805 96.6886 89.8266 95.9157C93.132 95.0705 93.3959 94.8367 93.3959 92.7547C93.3959 91.4883 93.2826 90.9918 92.9655 90.8702C92.7289 90.7795 91.4796 90.9898 90.1894 91.3381C88.2774 91.854 87.2851 91.951 84.8255 91.8617C80.0873 91.69 78.2137 90.4556 77.0588 86.7447C76.759 85.7816 76.5137 84.4988 76.5137 83.8945V82.7954L77.4437 83.0675C80.6413 84.0038 86.5847 83.8338 89.5582 82.7213C91.7503 81.9012 93.7146 79.9615 94.2348 78.1033C94.8512 75.9021 94.5221 72.7557 93.5023 71.0984ZM144.32 69.8168C143.846 69.2416 142.722 68.4104 141.821 67.9701C140.3 67.2258 139.91 67.1651 136.319 67.1116C134.193 67.0802 131.853 67.1626 131.118 67.2951C128.896 67.6956 126.693 68.4147 126.021 68.9587C125.231 69.5982 124.917 71.7657 125.502 72.5443C125.877 73.0436 125.972 73.0398 128.028 72.4475C129.432 72.0432 131.348 71.7791 133.617 71.6775C136.678 71.5405 137.22 71.5891 138.39 72.1065C140.18 72.8982 140.592 73.7964 140.81 77.3743L140.987 80.2708L140.297 80.082C136.41 79.0178 131.322 79.1208 128.655 80.3172C124.405 82.2246 122.528 86.4445 123.889 91.0285C124.864 94.3122 127.87 96.3043 131.881 96.3246C134.662 96.3386 136.662 95.7681 139.178 94.2427L141.038 93.115L141.21 94.1016C141.304 94.6444 141.51 95.217 141.667 95.374C141.824 95.5311 142.842 95.6213 143.928 95.5741L145.902 95.4885L145.977 84.4848C146.06 72.3611 146.003 71.8581 144.32 69.8168ZM106.643 72.9915C105.14 70.729 103.647 68.5881 103.325 68.2339C102.802 67.659 102.468 67.5901 100.213 67.5901C97.7643 67.5901 97.6879 67.6101 97.6879 68.2522C97.6879 68.6365 99.4297 71.4489 101.837 74.9515C104.119 78.2719 105.986 81.1089 105.986 81.256C105.986 81.4031 103.99 84.4078 101.551 87.9336C99.0405 91.5615 97.1157 94.6229 97.1157 94.9875C97.1157 95.6038 97.2181 95.6316 99.4932 95.6316C100.967 95.6316 102.04 95.4957 102.316 95.2739C102.56 95.0773 104.154 92.7593 105.857 90.1234C107.56 87.4872 109.026 85.3323 109.115 85.3346C109.204 85.3366 110.682 87.4935 112.4 90.1274C114.118 92.7613 115.72 95.0773 115.96 95.2739C116.236 95.4999 117.324 95.6316 118.917 95.6316C121.341 95.6316 121.437 95.607 121.434 94.9878C121.432 94.6309 119.396 91.3595 116.865 87.6483C114.355 83.9657 112.386 80.8136 112.491 80.6442C112.596 80.4746 114.528 77.7042 116.785 74.4874C119.042 71.2709 120.849 68.4353 120.801 68.1861C120.729 67.8132 120.262 67.7331 118.157 67.7331H115.599L112.487 72.4192L109.375 77.1053L106.643 72.9915ZM76.7195 77.812C76.8697 75.2709 78.8086 72.5059 80.9846 71.7302C81.5944 71.5127 82.8016 71.3302 83.6672 71.3239C87.2016 71.2993 88.8451 72.5053 89.0452 75.27C89.1573 76.8229 89.1009 77.016 88.2528 77.9817C87.7309 78.5766 86.8905 79.1466 86.2905 79.3131C84.8967 79.7003 79.8824 79.6393 78.0875 79.2135C76.6705 78.8773 76.6574 78.8639 76.7195 77.812ZM34.6772 87.6832C34.6999 85.1572 36.1443 83.6813 38.9301 83.3377C39.8503 83.2241 40.861 83.1674 41.1757 83.2118C41.4905 83.2561 42.6156 83.368 43.6757 83.4607C45.122 83.5869 45.8208 83.6173 46.1578 83.9819C46.4999 84.3522 46.469 85.0672 46.4687 86.5773L46.4681 89.1935L45.2188 89.9829C42.4224 91.7493 38.6016 92.4142 36.6281 91.478C35.3142 90.8545 34.6601 89.5823 34.6772 87.6832ZM129.163 87.7768C129.163 85.6259 129.962 84.4625 131.95 83.7174C132.736 83.4232 133.914 83.3497 136.317 83.4452C139.043 83.5539 140.151 83.5418 140.598 84.0793C140.946 84.4975 140.895 85.2485 140.895 86.648V89.3294L139.686 90.0925C136.824 91.8995 132.737 92.5341 130.911 91.4557C129.792 90.7941 129.163 89.4716 129.163 87.7768ZM141.949 108.079C142.139 104.687 141.954 104.39 139.259 103.756C137.176 103.265 131.58 103.28 129.306 103.781C125.561 104.607 122.01 106.476 122.01 107.62C122.01 108.365 122.452 108.47 124.442 108.198C130.449 107.377 135.403 107.626 136.469 108.804C137.293 109.714 136.851 112.495 135.035 117.827C134.166 120.379 133.455 122.674 133.455 122.927C133.455 123.853 134.738 123.414 136.084 122.028C139.443 118.568 141.657 113.305 141.949 108.079ZM104.269 118.643C82.2205 121.831 59.8039 118.048 39.947 107.787C37.3638 106.452 35.1671 105.371 35.0655 105.383C34.4575 105.457 34.1653 105.774 34.1653 106.359C34.1653 107.135 35.8327 108.719 39.8881 111.795C50.3241 119.711 62.4755 124.828 75.9415 126.978C79.9279 127.614 91.7583 127.866 96.0798 127.407C107.429 126.199 119.396 122.267 128.096 116.886C132.453 114.19 133.375 113.021 132.073 111.843C131.323 111.163 130.382 111.253 128.013 112.23C121.843 114.774 111.265 117.631 104.269 118.643Z" fill="black"/>
</svg>
