<svg width="174" height="174" viewBox="0 0 174 174" fill="none" xmlns="http://www.w3.org/2000/svg">
<circle cx="87.5" cy="86.5" r="84.5" stroke="black" stroke-width="4"/>
<path d="M45.264 57.6814H52.6262L46.4831 86.5806H63.9325L62.594 92.915H37.7822L45.264 57.6814ZM101.376 63.9202H82.7312L81.1535 71.402H98.2684L96.9537 77.5212H79.8388L77.9266 86.5806H97.4318L96.0932 92.915H69.393L76.8748 57.6814H102.714L101.376 63.9202ZM116.613 63.8007L111.737 86.7958H118.525C121.999 86.7958 124.788 85.0827 126.891 81.6565C128.039 79.7761 128.883 77.5372 129.425 74.9397C130.19 71.3542 130.214 68.6053 129.497 66.693C128.78 64.7648 126.748 63.8007 123.401 63.8007H116.613ZM131.242 58.4463C133.536 59.259 135.218 60.749 136.285 62.9163C137.146 64.6692 137.576 66.5655 137.576 68.6053C137.592 70.645 137.409 72.5892 137.026 74.4377C136.022 79.1228 134.238 83.0907 131.672 86.3416C128.198 90.7239 123.8 92.915 118.477 92.915H103.299L110.78 57.6814H125.959C128.126 57.7133 129.887 57.9682 131.242 58.4463Z" fill="black"/>
<path d="M45.264 57.6814V56.2991H44.1443L43.9118 57.3943L45.264 57.6814ZM52.6262 57.6814L53.9784 57.9688L54.3333 56.2991H52.6262V57.6814ZM46.4831 86.5806L45.1309 86.2932L44.776 87.963H46.4831V86.5806ZM63.9325 86.5806L65.285 86.8664L65.6376 85.1983H63.9325V86.5806ZM62.594 92.915V94.2974H63.7147L63.9464 93.2008L62.594 92.915ZM37.7822 92.915L36.43 92.6279L36.0755 94.2974H37.7822V92.915ZM45.264 59.0638H52.6262V56.2991H45.264V59.0638ZM51.2741 57.394L45.1309 86.2932L47.8352 86.8681L53.9784 57.9688L51.2741 57.394ZM46.4831 87.963H63.9325V85.1983H46.4831V87.963ZM62.5801 86.2948L61.2415 92.6292L63.9464 93.2008L65.285 86.8664L62.5801 86.2948ZM62.594 91.5327H37.7822V94.2974H62.594V91.5327ZM39.1344 93.2022L46.6162 57.9685L43.9118 57.3943L36.43 92.6279L39.1344 93.2022ZM101.376 63.9202V65.3025H102.493L102.727 64.2102L101.376 63.9202ZM82.7311 63.9202V62.5378H81.6099L81.3785 63.635L82.7311 63.9202ZM81.1535 71.402L79.8009 71.1168L79.4493 72.7843H81.1535V71.402ZM98.2684 71.402L99.6199 71.6923L99.9793 70.0196H98.2684V71.402ZM96.9537 77.5212V78.9036H98.0706L98.3052 77.8116L96.9537 77.5212ZM79.8388 77.5212V76.1389H78.7178L78.4863 77.2357L79.8388 77.5212ZM77.9266 86.5806L76.574 86.2951L76.222 87.963H77.9266V86.5806ZM97.4317 86.5806L98.7842 86.8664L99.1367 85.1983H97.4317V86.5806ZM96.0932 92.915V94.2974H97.2139L97.4456 93.2008L96.0932 92.915ZM69.393 92.915L68.0408 92.6279L67.6863 94.2974H69.393V92.915ZM76.8748 57.6814V56.2991H75.7552L75.5226 57.3943L76.8748 57.6814ZM102.714 57.6814L104.066 57.9714L104.425 56.2991H102.714V57.6814ZM101.376 62.5378H82.7311V65.3025H101.376V62.5378ZM81.3785 63.635L79.8009 71.1168L82.5061 71.6872L84.0838 64.2054L81.3785 63.635ZM81.1535 72.7843H98.2684V70.0196H81.1535V72.7843ZM96.9169 71.1116L95.6022 77.2309L98.3052 77.8116L99.6199 71.6923L96.9169 71.1116ZM96.9537 76.1389H79.8388V78.9036H96.9537V76.1389ZM78.4863 77.2357L76.574 86.2951L79.2791 86.8661L81.1914 77.8067L78.4863 77.2357ZM77.9266 87.963H97.4317V85.1983H77.9266V87.963ZM96.0793 86.2948L94.7407 92.6292L97.4456 93.2008L98.7842 86.8664L96.0793 86.2948ZM96.0932 91.5327H69.393V94.2974H96.0932V91.5327ZM70.7452 93.2022L78.227 57.9685L75.5226 57.3943L68.0408 92.6279L70.7452 93.2022ZM76.8748 59.0638H102.714V56.2991H76.8748V59.0638ZM101.363 57.3914L100.024 63.6302L102.727 64.2102L104.066 57.9714L101.363 57.3914ZM116.613 63.8007V62.4183H115.493L115.261 63.5139L116.613 63.8007ZM111.737 86.7958L110.384 86.509L110.03 88.1781H111.737V86.7958ZM126.891 81.6565L128.069 82.3798L128.071 82.3765L126.891 81.6565ZM129.425 74.9397L128.073 74.6513L128.072 74.6574L129.425 74.9397ZM129.497 66.693L128.201 67.1748L128.202 67.1784L129.497 66.693ZM131.242 58.4463L131.703 57.1433L131.702 57.1428L131.242 58.4463ZM136.285 62.9163L137.526 62.3071L137.525 62.3054L136.285 62.9163ZM137.576 68.6053H136.194L136.194 68.6161L137.576 68.6053ZM137.026 74.4377L138.378 74.7274L138.38 74.7178L137.026 74.4377ZM131.672 86.3416L132.755 87.2003L132.757 87.198L131.672 86.3416ZM103.299 92.915L101.946 92.6279L101.592 94.2974H103.299V92.915ZM110.78 57.6814V56.2991H109.661L109.428 57.3943L110.78 57.6814ZM125.959 57.6814L125.979 56.2992L125.969 56.2991H125.959V57.6814ZM115.261 63.5139L110.384 86.509L113.089 87.0825L117.965 64.0874L115.261 63.5139ZM111.737 88.1781H118.525V85.4134H111.737V88.1781ZM118.525 88.1781C122.563 88.1781 125.761 86.1394 128.069 82.3798L125.713 80.9333C123.814 84.0259 121.436 85.4134 118.525 85.4134V88.1781ZM128.071 82.3765C129.316 80.3368 130.211 77.9435 130.778 75.2219L128.072 74.6574C127.556 77.1309 126.761 79.2155 125.711 80.9365L128.071 82.3765ZM130.777 75.2281C131.559 71.5622 131.649 68.4949 130.791 66.2076L128.202 67.1784C128.779 68.7156 128.821 71.1461 128.073 74.6513L130.777 75.2281ZM130.792 66.2111C129.761 63.4382 126.915 62.4183 123.401 62.4183V65.183C126.581 65.183 127.798 66.0914 128.201 67.1748L130.792 66.2111ZM123.401 62.4183H116.613V65.183H123.401V62.4183ZM130.78 59.7494C132.738 60.4427 134.138 61.6861 135.045 63.5272L137.525 62.3054C136.297 59.8119 134.335 58.0753 131.703 57.1433L130.78 59.7494ZM135.044 63.5254C135.808 65.0803 136.194 66.767 136.194 68.6053H138.958C138.958 66.364 138.484 64.2581 137.526 62.3071L135.044 63.5254ZM136.194 68.6161C136.209 70.5659 136.034 72.4121 135.673 74.1576L138.38 74.7178C138.784 72.7662 138.975 70.7241 138.958 68.5945L136.194 68.6161ZM135.675 74.1481C134.708 78.6588 133.002 82.4246 130.587 85.4852L132.757 87.198C135.473 83.7569 137.337 79.5868 138.378 74.7273L135.675 74.1481ZM130.589 85.4829C127.362 89.5538 123.354 91.5327 118.477 91.5327V94.2974C124.246 94.2974 129.034 91.894 132.755 87.2003L130.589 85.4829ZM118.477 91.5327H103.299V94.2974H118.477V91.5327ZM104.651 93.2022L112.133 57.9685L109.428 57.3943L101.946 92.6279L104.651 93.2022ZM110.78 59.0638H125.959V56.2991H110.78V59.0638ZM125.939 59.0636C128.024 59.0943 129.621 59.3402 130.782 59.7499L131.702 57.1428C130.153 56.5963 128.228 56.3323 125.979 56.2992L125.939 59.0636Z" fill="black"/>
<path d="M45.4523 110.209L43.1425 121.101H46.3581C48.0037 121.101 49.3246 120.29 50.321 118.667C50.8645 117.776 51.2645 116.716 51.5212 115.485C51.8835 113.787 51.8948 112.485 51.5552 111.579C51.2155 110.666 50.2531 110.209 48.6679 110.209H45.4523ZM52.3817 107.673C53.4687 108.058 54.265 108.764 54.7707 109.79C55.1784 110.621 55.3822 111.519 55.3822 112.485C55.3897 113.451 55.3029 114.372 55.1217 115.248C54.6462 117.467 53.8008 119.346 52.5855 120.886C50.94 122.962 48.8566 124 46.3355 124H39.1457L42.6896 107.311H49.8794C50.906 107.326 51.7401 107.447 52.3817 107.673ZM58.4003 124H54.9356L58.4795 107.311H61.9442L58.4003 124ZM64.5774 118.848C64.5245 119.611 64.6114 120.181 64.8378 120.558C65.2605 121.245 66.1588 121.588 67.5326 121.588C68.3553 121.588 69.0422 121.498 69.5933 121.317C70.6425 120.969 71.2652 120.324 71.4615 119.38C71.5822 118.829 71.4313 118.403 71.0086 118.101C70.5934 117.807 69.8914 117.546 68.9026 117.32L67.2155 116.923C65.5624 116.531 64.4528 116.104 63.8867 115.644C62.9281 114.874 62.6224 113.67 62.9696 112.032C63.2866 110.538 64.0943 109.296 65.3926 108.307C66.6909 107.318 68.3931 106.824 70.4991 106.824C72.2578 106.824 73.658 107.292 74.6997 108.228C75.7414 109.156 76.1037 110.507 75.7867 112.281H72.4352C72.5937 111.277 72.3106 110.564 71.586 110.141C71.1029 109.862 70.4575 109.722 69.6499 109.722C68.7516 109.722 67.993 109.903 67.374 110.266C66.7626 110.628 66.389 111.134 66.2531 111.783C66.1248 112.379 66.2946 112.825 66.7626 113.119C67.057 113.315 67.7326 113.546 68.7894 113.81L71.5181 114.5C72.7107 114.802 73.575 115.206 74.1109 115.712C74.9412 116.497 75.1979 117.633 74.8809 119.12C74.5563 120.645 73.7033 121.913 72.322 122.924C70.9406 123.928 69.1856 124.43 67.057 124.43C64.8831 124.43 63.2791 123.936 62.2449 122.947C61.2108 121.951 60.8787 120.584 61.2486 118.848H64.5774ZM85.4511 110.209H82.2015L81.1599 115.123H84.4094C85.2322 115.123 85.9153 114.923 86.4588 114.523C87.0023 114.123 87.3646 113.489 87.5457 112.621C87.7345 111.753 87.6363 111.134 87.2514 110.764C86.8739 110.394 86.2739 110.209 85.4511 110.209ZM84.0924 117.999H80.5484L79.2803 124H75.8156L79.3596 107.311H86.6286C88.3044 107.311 89.5461 107.741 90.3537 108.601C91.1689 109.462 91.3878 110.794 91.0104 112.598C90.5877 114.568 89.7914 115.961 88.6214 116.776C87.4514 117.591 85.9417 117.999 84.0924 117.999ZM94.0512 107.311H97.5385L94.6287 121H102.894L102.26 124H90.5073L94.0512 107.311ZM109.886 117.693H114.121L113.43 111.126L109.886 117.693ZM112.309 107.311H116.25L118.616 124H114.834L114.483 120.569H108.335L106.456 124H102.81L112.309 107.311ZM130.987 107.311H134.938L127.137 117.727L125.812 124H122.325L123.65 117.727L120.094 107.311H124.204L126.118 114.58L130.987 107.311Z" fill="black"/>
</svg>
