<svg width="174" height="174" viewBox="0 0 174 174" fill="none" xmlns="http://www.w3.org/2000/svg">
<rect width="174" height="174" fill="white"/>
<circle cx="87.5" cy="86.5" r="84.5" stroke="black" stroke-width="4"/>
<path d="M94.2004 51.3219C99.9737 51.3219 104.652 53.5449 108.236 57.9911C111.885 62.4372 113.179 67.6465 112.118 73.6189C111.122 79.5913 108.236 84.5351 103.458 88.4504C98.6797 92.3656 93.0723 94.3232 86.6353 94.3232H70.6094L69.2158 102.386H93.9018L92.7073 109.155H68.0213L65.931 121H56.7733L58.8636 109.155H50.4027L51.5972 102.386H60.0581L61.4517 94.3232H52.9907L54.4838 85.9618H62.9448L69.0167 51.3219H94.2004ZM102.96 72.9221C103.624 69.3386 102.96 66.2861 100.969 63.7644C99.0447 61.2427 96.3239 59.9819 92.8068 59.9819H76.6813L72.1025 85.9618H88.1284C91.5792 85.9618 94.7644 84.701 97.6843 82.1793C100.604 79.5913 102.363 76.5055 102.96 72.9221Z" fill="black"/>
<path d="M108.236 57.9911L106.047 59.7549L106.055 59.7647L106.063 59.7745L108.236 57.9911ZM112.118 73.6189L109.35 73.1269L109.348 73.1418L109.345 73.1568L112.118 73.6189ZM103.458 88.4504L101.676 86.2763L101.676 86.2763L103.458 88.4504ZM70.6094 94.3232V91.5124H68.2427L67.8396 93.8445L70.6094 94.3232ZM69.2158 102.386L66.4461 101.907L65.8775 105.197H69.2158V102.386ZM93.9018 102.386L96.6698 102.874L97.252 99.5752H93.9018V102.386ZM92.7073 109.155V111.966H95.0655L95.4753 109.643L92.7073 109.155ZM68.0213 109.155V106.344H65.6631L65.2533 108.666L68.0213 109.155ZM65.931 121V123.811H68.2892L68.699 121.488L65.931 121ZM56.7733 121L54.0053 120.512L53.423 123.811H56.7733V121ZM58.8636 109.155L61.6316 109.643L62.2139 106.344H58.8636V109.155ZM50.4027 109.155L47.6347 108.666L47.0525 111.966H50.4027V109.155ZM51.5972 102.386V99.5752H49.239L48.8292 101.898L51.5972 102.386ZM60.0581 102.386V105.197H62.4247L62.8278 102.865L60.0581 102.386ZM61.4517 94.3232L64.2214 94.8019L64.7899 91.5124H61.4517V94.3232ZM52.9907 94.3232L50.2237 93.8291L49.6336 97.134H52.9907V94.3232ZM54.4838 85.9618V83.1511H52.1305L51.7168 85.4677L54.4838 85.9618ZM62.9448 85.9618V88.7726H65.3057L65.7133 86.4471L62.9448 85.9618ZM69.0167 51.3219V48.5111H66.6558L66.2481 50.8366L69.0167 51.3219ZM102.96 72.9221L100.196 72.4103L100.192 72.4351L100.187 72.46L102.96 72.9221ZM100.969 63.7644L98.7347 65.4696L98.7487 65.488L98.763 65.5061L100.969 63.7644ZM76.6813 59.9819V57.1711H74.3226L73.9132 59.494L76.6813 59.9819ZM72.1025 85.9618L69.3343 85.474L68.753 88.7726H72.1025V85.9618ZM97.6843 82.1793L99.5215 84.3066L99.5352 84.2948L99.5487 84.2828L97.6843 82.1793ZM94.2004 54.1326C99.1343 54.1326 103.004 55.9793 106.047 59.7549L110.424 56.2272C106.3 51.1106 100.813 48.5111 94.2004 48.5111V54.1326ZM106.063 59.7745C109.16 63.5471 110.277 67.9131 109.35 73.1269L114.885 74.1108C116.082 67.3798 114.611 61.3273 110.408 56.2076L106.063 59.7745ZM109.345 73.1568C108.464 78.4425 105.939 82.7832 101.676 86.2763L105.239 90.6244C110.532 86.2871 113.78 80.74 114.89 74.081L109.345 73.1568ZM101.676 86.2763C97.423 89.7614 92.4523 91.5124 86.6353 91.5124V97.134C93.6923 97.134 99.9364 94.9698 105.239 90.6244L101.676 86.2763ZM86.6353 91.5124H70.6094V97.134H86.6353V91.5124ZM67.8396 93.8445L66.4461 101.907L71.9855 102.865L73.3791 94.8019L67.8396 93.8445ZM69.2158 105.197H93.9018V99.5752H69.2158V105.197ZM91.1338 101.898L89.9393 108.666L95.4753 109.643L96.6698 102.874L91.1338 101.898ZM92.7073 106.344H68.0213V111.966H92.7073V106.344ZM65.2533 108.666L63.163 120.512L68.699 121.488L70.7893 109.643L65.2533 108.666ZM65.931 118.189H56.7733V123.811H65.931V118.189ZM59.5413 121.488L61.6316 109.643L56.0956 108.666L54.0053 120.512L59.5413 121.488ZM58.8636 106.344H50.4027V111.966H58.8636V106.344ZM53.1707 109.643L54.3652 102.874L48.8292 101.898L47.6347 108.666L53.1707 109.643ZM51.5972 105.197H60.0581V99.5752H51.5972V105.197ZM62.8278 102.865L64.2214 94.8019L58.6819 93.8445L57.2884 101.907L62.8278 102.865ZM61.4517 91.5124H52.9907V97.134H61.4517V91.5124ZM55.7578 94.8173L57.2509 86.456L51.7168 85.4677L50.2237 93.8291L55.7578 94.8173ZM54.4838 88.7726H62.9448V83.1511H54.4838V88.7726ZM65.7133 86.4471L71.7853 51.8072L66.2481 50.8366L60.1762 85.4766L65.7133 86.4471ZM69.0167 54.1326H94.2004V48.5111H69.0167V54.1326ZM105.724 73.4339C106.513 69.1731 105.738 65.2693 103.175 62.0227L98.763 65.5061C100.181 67.3028 100.734 69.5042 100.196 72.4103L105.724 73.4339ZM103.204 62.0592C100.684 58.7581 97.0909 57.1711 92.8068 57.1711V62.7926C95.5569 62.7926 97.405 63.7273 98.7347 65.4696L103.204 62.0592ZM92.8068 57.1711H76.6813V62.7926H92.8068V57.1711ZM73.9132 59.494L69.3343 85.474L74.8706 86.4497L79.4494 60.4697L73.9132 59.494ZM72.1025 88.7726H88.1284V83.1511H72.1025V88.7726ZM88.1284 88.7726C92.3343 88.7726 96.1556 87.2135 99.5215 84.3066L95.8471 80.0521C93.3733 82.1885 90.824 83.1511 88.1284 83.1511V88.7726ZM99.5487 84.2828C102.912 81.3016 105.021 77.6512 105.732 73.3842L100.187 72.46C99.7041 75.3598 98.2962 77.8809 95.8199 80.0759L99.5487 84.2828Z" fill="black"/>
<path fill-rule="evenodd" clip-rule="evenodd" d="M125.66 100L114.83 118.758L104 100H125.66Z" fill="black"/>
</svg>
