<svg width="173" height="173" viewBox="0 0 173 173" fill="none" xmlns="http://www.w3.org/2000/svg">
<circle cx="86.5" cy="86.5" r="84.5" stroke="black" stroke-width="4"/>
<path d="M70.912 66.1492L69.9364 65.1014L68.9414 66.1307C63.3172 71.9487 58.3028 78.0081 54.0054 83.7013C49.3565 89.8602 49.3506 97.0318 52.4786 102.643C55.596 108.236 61.7945 112.235 69.4424 112.235C77.0407 112.235 83.2346 108.271 86.4044 102.707C89.5842 97.125 89.6954 89.9659 85.2178 83.7453C81.0673 77.9791 76.25 71.8829 70.912 66.1492Z" stroke="black" stroke-width="2.71642"/>
<path d="M67.8801 105.963C67.8801 106.107 67.8211 106.22 67.7535 106.285C67.6943 106.342 67.6381 106.358 67.5709 106.349C66.5389 106.207 65.5271 105.933 64.5605 105.532C63.0774 104.918 61.7298 104.018 60.5947 102.883C59.4597 101.748 58.5593 100.4 57.9449 98.9169C57.5446 97.9503 57.2708 96.9384 57.1287 95.9064C57.1195 95.8393 57.1354 95.783 57.1922 95.7238C57.2569 95.6562 57.3701 95.5972 57.5147 95.5972C57.641 95.5972 57.7771 95.6453 57.9119 95.7725C58.0532 95.9058 58.1692 96.1081 58.2136 96.3409C58.3565 97.0906 58.5759 97.8255 58.8693 98.534C59.4334 99.8957 60.2601 101.133 61.3022 102.175C62.3444 103.217 63.5817 104.044 64.9434 104.608C65.6518 104.901 66.3868 105.121 67.1365 105.264C67.3693 105.308 67.5715 105.424 67.7048 105.565C67.832 105.7 67.8801 105.836 67.8801 105.963Z" fill="#C4C4C4" stroke="black" stroke-width="2.71642"/>
<path d="M107.822 86.7539L107.09 85.968L106.344 86.74C102.308 90.9153 98.7093 95.2637 95.6255 99.3491C92.2794 103.782 92.2747 108.946 94.5269 112.986C96.7711 117.012 101.233 119.89 106.735 119.89C112.202 119.89 116.66 117.038 118.942 113.032C121.231 109.013 121.311 103.859 118.088 99.3815C115.11 95.2437 111.653 90.8688 107.822 86.7539Z" stroke="black" stroke-width="2.03731"/>
<path d="M105.615 115.345C105.615 115.449 105.573 115.53 105.524 115.577C105.482 115.618 105.441 115.629 105.393 115.622C104.653 115.52 103.927 115.324 103.234 115.037C102.17 114.596 101.203 113.95 100.389 113.136C99.5742 112.322 98.9283 111.355 98.4876 110.291C98.2004 109.597 98.004 108.872 97.902 108.131C97.8954 108.083 97.9069 108.043 97.9475 108C97.994 107.952 98.0752 107.909 98.179 107.909C98.2695 107.909 98.3672 107.944 98.4639 108.035C98.5652 108.131 98.6485 108.276 98.6803 108.443C98.7828 108.981 98.9402 109.508 99.1507 110.016C99.5554 110.993 100.148 111.881 100.896 112.628C101.644 113.376 102.531 113.969 103.508 114.374C104.016 114.584 104.544 114.742 105.082 114.844C105.249 114.876 105.394 114.959 105.489 115.061C105.58 115.157 105.615 115.255 105.615 115.345Z" fill="#C4C4C4" stroke="black" stroke-width="1.94873"/>
<path d="M100.795 62.3059L100.064 61.52L99.3173 62.292C97.2213 64.4602 95.3546 66.7162 93.7565 68.8333C91.9101 71.2795 91.9019 74.1513 93.1534 76.3966C94.3969 78.6274 96.8605 80.2064 99.8739 80.2064C102.869 80.2064 105.329 78.6412 106.591 76.4242C107.862 74.1941 107.902 71.3297 106.123 68.859C104.58 66.715 102.786 64.4444 100.795 62.3059Z" stroke="black" stroke-width="2.03731"/>
<mask id="path-7-inside-1" fill="white">
<path d="M99.7977 77.3718C99.7977 77.7511 99.4888 78.0635 99.113 78.0117C98.6892 77.9534 98.2737 77.841 97.8768 77.6766C97.2678 77.4243 96.7145 77.0546 96.2484 76.5885C95.7823 76.1224 95.4125 75.569 95.1603 74.9601C94.9959 74.5631 94.8835 74.1476 94.8251 73.7239C94.7734 73.3481 95.0857 73.0392 95.465 73.0392C95.8444 73.0392 96.1453 73.3493 96.2164 73.722C96.2628 73.9655 96.3341 74.2042 96.4294 74.4344C96.6126 74.8767 96.8811 75.2786 97.2197 75.6172C97.5582 75.9557 97.9601 76.2243 98.4025 76.4075C98.6326 76.5028 98.8714 76.5741 99.1149 76.6205C99.4875 76.6915 99.7977 76.9925 99.7977 77.3718Z"/>
</mask>
<path d="M99.7977 77.3718C99.7977 77.7511 99.4888 78.0635 99.113 78.0117C98.6892 77.9534 98.2737 77.841 97.8768 77.6766C97.2678 77.4243 96.7145 77.0546 96.2484 76.5885C95.7823 76.1224 95.4125 75.569 95.1603 74.9601C94.9959 74.5631 94.8835 74.1476 94.8251 73.7239C94.7734 73.3481 95.0857 73.0392 95.465 73.0392C95.8444 73.0392 96.1453 73.3493 96.2164 73.722C96.2628 73.9655 96.3341 74.2042 96.4294 74.4344C96.6126 74.8767 96.8811 75.2786 97.2197 75.6172C97.5582 75.9557 97.9601 76.2243 98.4025 76.4075C98.6326 76.5028 98.8714 76.5741 99.1149 76.6205C99.4875 76.6915 99.7977 76.9925 99.7977 77.3718Z" fill="#C4C4C4"/>
<path d="M99.1149 76.6205L98.8495 78.0127L99.1149 76.6205ZM96.2164 73.722L94.8242 73.9874L94.8242 73.9874L96.2164 73.722ZM99.3063 76.6077C99.0022 76.5658 98.704 76.4852 98.4192 76.3672L97.3344 78.9859C97.8434 79.1968 98.3762 79.3409 98.9196 79.4157L99.3063 76.6077ZM98.4192 76.3672C97.9821 76.1862 97.585 75.9208 97.2505 75.5863L95.2462 77.5906C95.8439 78.1883 96.5535 78.6625 97.3344 78.9859L98.4192 76.3672ZM97.2505 75.5863C96.916 75.2518 96.6507 74.8547 96.4697 74.4177L93.8509 75.5024C94.1744 76.2834 94.6485 76.9929 95.2462 77.5906L97.2505 75.5863ZM96.4697 74.4177C96.3517 74.1328 96.271 73.8347 96.2291 73.5306L93.4211 73.9172C93.4959 74.4606 93.6401 74.9934 93.8509 75.5024L96.4697 74.4177ZM94.8242 73.9874C94.8887 74.3256 94.9876 74.6571 95.12 74.9767L97.7388 73.892C97.6805 73.7513 97.6369 73.6054 97.6086 73.4565L94.8242 73.9874ZM95.12 74.9767C95.3744 75.591 95.7474 76.1492 96.2175 76.6193L98.2218 74.615C98.0149 74.4081 97.8508 74.1624 97.7388 73.892L95.12 74.9767ZM96.2175 76.6193C96.6877 77.0895 97.2458 77.4624 97.8601 77.7169L98.9448 75.0981C98.6745 74.9861 98.4288 74.8219 98.2218 74.615L96.2175 76.6193ZM97.8601 77.7169C98.1797 77.8492 98.5113 77.9482 98.8495 78.0127L99.3803 75.2283C99.2314 75.1999 99.0855 75.1564 98.9448 75.0981L97.8601 77.7169ZM98.8495 78.0127C98.7527 77.9942 98.6525 77.9457 98.5652 77.8532C98.4716 77.754 98.3804 77.5859 98.3804 77.3718H101.215C101.215 76.1587 100.258 75.3957 99.3803 75.2283L98.8495 78.0127ZM96.2291 73.5306C96.2667 73.8031 96.1645 74.0565 96.0066 74.2212C95.8572 74.3772 95.66 74.4564 95.465 74.4564V71.6219C94.3645 71.6219 93.234 72.5583 93.4211 73.9172L96.2291 73.5306ZM95.465 74.4564C95.2509 74.4564 95.0828 74.3652 94.9836 74.2717C94.8912 74.1844 94.8426 74.0842 94.8242 73.9874L97.6086 73.4565C97.4412 72.5787 96.6782 71.6219 95.465 71.6219V74.4564ZM98.9196 79.4157C100.279 79.6029 101.215 78.4724 101.215 77.3718H98.3804C98.3804 77.1769 98.4597 76.9797 98.6156 76.8302C98.7803 76.6723 99.0338 76.5702 99.3063 76.6077L98.9196 79.4157Z" fill="black" mask="url(#path-7-inside-1)"/>
</svg>
